<mxfile host="app.diagrams.net" modified="2023-11-10T18:05:47.169Z" agent="Mozilla/5.0 (X11; Linux x86_64; rv:101.0) Gecko/20100101 Firefox/101.0" etag="h7iViZmhU8hat0OT-_55" version="22.1.0" type="device">
  <diagram name="PÃ¡gina-1" id="OfZcrJxqMTC0yL5Vrd7V">
    <mxGraphModel dx="1360" dy="751" grid="1" gridSize="10" guides="1" tooltips="1" connect="1" arrows="1" fold="1" page="1" pageScale="1" pageWidth="827" pageHeight="1169" math="0" shadow="0">
      <root>
        <mxCell id="0" />
        <mxCell id="1" parent="0" />
        <mxCell id="Kk2KyUYPk7wHY-jMw2S--12" style="edgeStyle=orthogonalEdgeStyle;rounded=0;orthogonalLoop=1;jettySize=auto;html=1;exitX=0.5;exitY=1;exitDx=0;exitDy=0;" edge="1" parent="1" source="Kk2KyUYPk7wHY-jMw2S--3" target="Kk2KyUYPk7wHY-jMw2S--4">
          <mxGeometry relative="1" as="geometry" />
        </mxCell>
        <mxCell id="Kk2KyUYPk7wHY-jMw2S--3" value="" style="ellipse;whiteSpace=wrap;html=1;" vertex="1" parent="1">
          <mxGeometry x="344" y="60" width="70" height="70" as="geometry" />
        </mxCell>
        <mxCell id="Kk2KyUYPk7wHY-jMw2S--2" value="1" style="text;html=1;strokeColor=none;fillColor=none;align=center;verticalAlign=middle;whiteSpace=wrap;rounded=0;" vertex="1" parent="1">
          <mxGeometry x="349" y="80" width="60" height="30" as="geometry" />
        </mxCell>
        <mxCell id="Kk2KyUYPk7wHY-jMw2S--13" style="edgeStyle=orthogonalEdgeStyle;rounded=0;orthogonalLoop=1;jettySize=auto;html=1;exitX=1;exitY=0.5;exitDx=0;exitDy=0;" edge="1" parent="1" source="Kk2KyUYPk7wHY-jMw2S--4" target="Kk2KyUYPk7wHY-jMw2S--10">
          <mxGeometry relative="1" as="geometry" />
        </mxCell>
        <mxCell id="Kk2KyUYPk7wHY-jMw2S--16" style="edgeStyle=orthogonalEdgeStyle;rounded=0;orthogonalLoop=1;jettySize=auto;html=1;exitX=0.5;exitY=1;exitDx=0;exitDy=0;" edge="1" parent="1" source="Kk2KyUYPk7wHY-jMw2S--4" target="Kk2KyUYPk7wHY-jMw2S--5">
          <mxGeometry relative="1" as="geometry" />
        </mxCell>
        <mxCell id="Kk2KyUYPk7wHY-jMw2S--4" value="" style="ellipse;whiteSpace=wrap;html=1;" vertex="1" parent="1">
          <mxGeometry x="344" y="200" width="70" height="70" as="geometry" />
        </mxCell>
        <mxCell id="Kk2KyUYPk7wHY-jMw2S--19" style="edgeStyle=orthogonalEdgeStyle;rounded=0;orthogonalLoop=1;jettySize=auto;html=1;exitX=0;exitY=1;exitDx=0;exitDy=0;entryX=0.5;entryY=0;entryDx=0;entryDy=0;" edge="1" parent="1" source="Kk2KyUYPk7wHY-jMw2S--5" target="Kk2KyUYPk7wHY-jMw2S--7">
          <mxGeometry relative="1" as="geometry">
            <Array as="points">
              <mxPoint x="225" y="460" />
            </Array>
          </mxGeometry>
        </mxCell>
        <mxCell id="Kk2KyUYPk7wHY-jMw2S--20" style="edgeStyle=orthogonalEdgeStyle;rounded=0;orthogonalLoop=1;jettySize=auto;html=1;exitX=1;exitY=1;exitDx=0;exitDy=0;entryX=0.5;entryY=0;entryDx=0;entryDy=0;" edge="1" parent="1" source="Kk2KyUYPk7wHY-jMw2S--5" target="Kk2KyUYPk7wHY-jMw2S--8">
          <mxGeometry relative="1" as="geometry" />
        </mxCell>
        <mxCell id="Kk2KyUYPk7wHY-jMw2S--5" value="" style="ellipse;whiteSpace=wrap;html=1;" vertex="1" parent="1">
          <mxGeometry x="344" y="400" width="70" height="70" as="geometry" />
        </mxCell>
        <mxCell id="Kk2KyUYPk7wHY-jMw2S--27" style="edgeStyle=orthogonalEdgeStyle;rounded=0;orthogonalLoop=1;jettySize=auto;html=1;exitX=1;exitY=1;exitDx=0;exitDy=0;" edge="1" parent="1" source="Kk2KyUYPk7wHY-jMw2S--7" target="Kk2KyUYPk7wHY-jMw2S--17">
          <mxGeometry relative="1" as="geometry" />
        </mxCell>
        <mxCell id="Kk2KyUYPk7wHY-jMw2S--28" style="edgeStyle=orthogonalEdgeStyle;rounded=0;orthogonalLoop=1;jettySize=auto;html=1;exitX=0;exitY=1;exitDx=0;exitDy=0;entryX=0.5;entryY=0;entryDx=0;entryDy=0;" edge="1" parent="1" source="Kk2KyUYPk7wHY-jMw2S--7" target="Kk2KyUYPk7wHY-jMw2S--18">
          <mxGeometry relative="1" as="geometry" />
        </mxCell>
        <mxCell id="Kk2KyUYPk7wHY-jMw2S--7" value="" style="ellipse;whiteSpace=wrap;html=1;" vertex="1" parent="1">
          <mxGeometry x="190" y="515" width="70" height="70" as="geometry" />
        </mxCell>
        <mxCell id="Kk2KyUYPk7wHY-jMw2S--22" style="edgeStyle=orthogonalEdgeStyle;rounded=0;orthogonalLoop=1;jettySize=auto;html=1;exitX=0.5;exitY=1;exitDx=0;exitDy=0;" edge="1" parent="1" source="Kk2KyUYPk7wHY-jMw2S--8" target="Kk2KyUYPk7wHY-jMw2S--9">
          <mxGeometry relative="1" as="geometry" />
        </mxCell>
        <mxCell id="Kk2KyUYPk7wHY-jMw2S--25" style="edgeStyle=orthogonalEdgeStyle;rounded=0;orthogonalLoop=1;jettySize=auto;html=1;exitX=0;exitY=0.5;exitDx=0;exitDy=0;entryX=1;entryY=0.5;entryDx=0;entryDy=0;" edge="1" parent="1" source="Kk2KyUYPk7wHY-jMw2S--8" target="Kk2KyUYPk7wHY-jMw2S--7">
          <mxGeometry relative="1" as="geometry" />
        </mxCell>
        <mxCell id="Kk2KyUYPk7wHY-jMw2S--8" value="" style="ellipse;whiteSpace=wrap;html=1;" vertex="1" parent="1">
          <mxGeometry x="520" y="515" width="70" height="70" as="geometry" />
        </mxCell>
        <mxCell id="Kk2KyUYPk7wHY-jMw2S--24" style="edgeStyle=orthogonalEdgeStyle;rounded=0;orthogonalLoop=1;jettySize=auto;html=1;exitX=1;exitY=0.5;exitDx=0;exitDy=0;" edge="1" parent="1" source="Kk2KyUYPk7wHY-jMw2S--9">
          <mxGeometry relative="1" as="geometry">
            <mxPoint x="420" y="440" as="targetPoint" />
            <Array as="points">
              <mxPoint x="610" y="675" />
              <mxPoint x="610" y="440" />
            </Array>
          </mxGeometry>
        </mxCell>
        <mxCell id="Kk2KyUYPk7wHY-jMw2S--9" value="" style="ellipse;whiteSpace=wrap;html=1;" vertex="1" parent="1">
          <mxGeometry x="520" y="640" width="70" height="70" as="geometry" />
        </mxCell>
        <mxCell id="Kk2KyUYPk7wHY-jMw2S--34" style="edgeStyle=orthogonalEdgeStyle;rounded=0;orthogonalLoop=1;jettySize=auto;html=1;exitX=0;exitY=1;exitDx=0;exitDy=0;entryX=1;entryY=0;entryDx=0;entryDy=0;" edge="1" parent="1" source="Kk2KyUYPk7wHY-jMw2S--10" target="Kk2KyUYPk7wHY-jMw2S--5">
          <mxGeometry relative="1" as="geometry" />
        </mxCell>
        <mxCell id="Kk2KyUYPk7wHY-jMw2S--10" value="" style="ellipse;whiteSpace=wrap;html=1;" vertex="1" parent="1">
          <mxGeometry x="510" y="310" width="70" height="70" as="geometry" />
        </mxCell>
        <mxCell id="Kk2KyUYPk7wHY-jMw2S--17" value="" style="ellipse;whiteSpace=wrap;html=1;" vertex="1" parent="1">
          <mxGeometry x="279" y="650" width="70" height="70" as="geometry" />
        </mxCell>
        <mxCell id="Kk2KyUYPk7wHY-jMw2S--18" value="" style="ellipse;whiteSpace=wrap;html=1;" vertex="1" parent="1">
          <mxGeometry x="70" y="650" width="70" height="70" as="geometry" />
        </mxCell>
        <mxCell id="Kk2KyUYPk7wHY-jMw2S--29" value="2" style="text;html=1;strokeColor=none;fillColor=none;align=center;verticalAlign=middle;whiteSpace=wrap;rounded=0;" vertex="1" parent="1">
          <mxGeometry x="349" y="220" width="60" height="30" as="geometry" />
        </mxCell>
        <mxCell id="Kk2KyUYPk7wHY-jMw2S--30" value="3" style="text;html=1;strokeColor=none;fillColor=none;align=center;verticalAlign=middle;whiteSpace=wrap;rounded=0;" vertex="1" parent="1">
          <mxGeometry x="515" y="330" width="60" height="30" as="geometry" />
        </mxCell>
        <mxCell id="Kk2KyUYPk7wHY-jMw2S--31" value="4" style="text;html=1;strokeColor=none;fillColor=none;align=center;verticalAlign=middle;whiteSpace=wrap;rounded=0;" vertex="1" parent="1">
          <mxGeometry x="349" y="420" width="60" height="30" as="geometry" />
        </mxCell>
        <mxCell id="Kk2KyUYPk7wHY-jMw2S--35" value="5" style="text;html=1;strokeColor=none;fillColor=none;align=center;verticalAlign=middle;whiteSpace=wrap;rounded=0;" vertex="1" parent="1">
          <mxGeometry x="525" y="535" width="60" height="30" as="geometry" />
        </mxCell>
        <mxCell id="Kk2KyUYPk7wHY-jMw2S--36" value="7" style="text;html=1;strokeColor=none;fillColor=none;align=center;verticalAlign=middle;whiteSpace=wrap;rounded=0;" vertex="1" parent="1">
          <mxGeometry x="195" y="535" width="60" height="30" as="geometry" />
        </mxCell>
        <mxCell id="Kk2KyUYPk7wHY-jMw2S--37" value="8" style="text;html=1;strokeColor=none;fillColor=none;align=center;verticalAlign=middle;whiteSpace=wrap;rounded=0;" vertex="1" parent="1">
          <mxGeometry x="75" y="670" width="60" height="30" as="geometry" />
        </mxCell>
        <mxCell id="Kk2KyUYPk7wHY-jMw2S--38" value="9" style="text;html=1;strokeColor=none;fillColor=none;align=center;verticalAlign=middle;whiteSpace=wrap;rounded=0;" vertex="1" parent="1">
          <mxGeometry x="284" y="670" width="60" height="30" as="geometry" />
        </mxCell>
        <mxCell id="Kk2KyUYPk7wHY-jMw2S--39" value="6" style="text;html=1;strokeColor=none;fillColor=none;align=center;verticalAlign=middle;whiteSpace=wrap;rounded=0;" vertex="1" parent="1">
          <mxGeometry x="525" y="660" width="60" height="30" as="geometry" />
        </mxCell>
      </root>
    </mxGraphModel>
  </diagram>
</mxfile>
